<svg width="26" height="26" viewBox="0 0 26 26" fill="none" xmlns="http://www.w3.org/2000/svg">
<rect width="26" height="26" rx="13" fill="#B0AEAE"/>
<path d="M10.8692 13.1822C13.3145 17.41 21.0039 17.5481 16.7686 19.989C12.5332 22.4299 7.11749 20.9814 4.67221 16.7536C2.22692 12.5259 3.67806 7.11983 7.91342 4.67893C12.1488 2.23803 8.42392 8.95442 10.8692 13.1822Z" fill="black"/>
<path d="M17.3098 4.58541C17.3697 4.40115 17.6303 4.40115 17.6902 4.58541L18.0164 5.58926C18.0432 5.67167 18.1199 5.72746 18.2066 5.72746H19.2621C19.4558 5.72746 19.5364 5.97538 19.3797 6.08926L18.5257 6.70967C18.4556 6.7606 18.4263 6.85088 18.4531 6.93328L18.7793 7.93713C18.8391 8.12139 18.6282 8.27462 18.4715 8.16074L17.6176 7.54033C17.5475 7.4894 17.4525 7.4894 17.3824 7.54033L16.5285 8.16074C16.3718 8.27462 16.1609 8.12139 16.2207 7.93713L16.5469 6.93328C16.5737 6.85088 16.5444 6.7606 16.4743 6.70967L15.6203 6.08926C15.4636 5.97538 15.5442 5.72746 15.7379 5.72746H16.7934C16.8801 5.72746 16.9568 5.67167 16.9836 5.58926L17.3098 4.58541Z" fill="#1E1E1E"/>
</svg>
